<svg id="Color" xmlns="http://www.w3.org/2000/svg" viewBox="0 0 493.1 328.2"><defs><style>.cls-1{fill:#005e83;}.cls-2{fill:#bf5700;}.cls-3{fill:none;}</style></defs><title>Artboard 1</title><path class="cls-1" d="M221.6,179.1,223,182l19.6,2.9-14.1,13.9,3.6,19.6-17.9-9.3-1.3-1.7-.7,3.4s-4.3,93.2-3.7,93.4l18.1,8.4V249.5s3-12.3,10.5-16.5c2.5-1.4,6.1-2,9.2-2.5,2.5-.4,5.6.3,7.8.8l3.7,1.4V161.4h26.5v-10h14.4L291.9,140c-2.3-3.9-7.5-11.6-7.9-16.8a90,90,0,0,1,.5-18.7,18.25,18.25,0,0,1,2.8-6.2c1.6-2.2,1.9-3,4.7-4.8.5-.3,2-1,2-1s-7.1-4.5-10.2-5.3c-4.4-1.1-18,0-18,0l-44.2,91.9"/><path d="M227.6,314.2l-19.5-9c-.8-.3-.8-.6-.3-15.6.3-7.8.7-18.5,1.3-32.1,1-23,2-46.4,2.1-46.6v-.2l.4-4,3.3,1.7,15.9,8.2-3.3-18.2,13-12.9-18.1-2.6-1.9-3.8,44.7-92.8h.6c.6-.1,13.8-1.1,18.3,0,3.2.8,10.2,5.3,10.5,5.4l1.5,1-1.6.8c-.6.3-1.6.8-1.9,1a10.63,10.63,0,0,0-3.9,3.7l-.6.9a16.93,16.93,0,0,0-2.6,5.8,87.91,87.91,0,0,0-.5,18.5c.4,4.1,4,10.1,6.4,14.1.5.8,1,1.6,1.4,2.3l7.6,12.9H285.2v10H258.7v71.4l-5.2-1.9c-2.1-.4-5-1-7.1-.7-3.1.5-6.5,1.1-8.9,2.4-6.7,3.7-9.7,14.5-10,15.8v64.5Zm-18.2-10.6,16.2,7.5V249.3c.1-.5,3.2-12.8,11-17.1,2.6-1.5,6.3-2.1,9.5-2.6a22.88,22.88,0,0,1,7.9.7l.5.1,2.4.9V160.5h26.5v-10h13.7l-5.9-9.9c-.4-.7-.8-1.4-1.3-2.2-2.7-4.4-6.3-10.4-6.7-14.9a91.93,91.93,0,0,1,.5-18.9,20.27,20.27,0,0,1,3-6.7l.6-.8a11.81,11.81,0,0,1,4.4-4.2,2.19,2.19,0,0,1,.5-.3c-2.2-1.4-6.4-3.8-8.4-4.3-3.6-.9-14.5-.2-17.1,0l-44,90.8,1,2,21,3.1-15.2,15,3.6,21.1L213.5,210l-.1-.1-.3,1.2c-1.1,24.2-3.8,86.1-3.7,92.5Z"/><path d="M319.4,173.6a12.61,12.61,0,0,1-4.3,9.4,17.18,17.18,0,0,1-21.8,0,12.06,12.06,0,0,1-4.4-9.4V156.2h11v18c0,3.5,1.4,5.2,4.3,5.2s4.2-1.7,4.2-5.2V163.5a21.4,21.4,0,0,0-3.1-11.5l-13-20.3a21.54,21.54,0,0,1-3.4-11.6V107.7a12.36,12.36,0,0,1,4.4-9.4,17.18,17.18,0,0,1,21.8,0,11.8,11.8,0,0,1,4.3,9.4v14.7h-11V105.8c0-3.5-1.4-5.2-4.2-5.2s-4.3,1.7-4.3,5.2v11.4a20.83,20.83,0,0,0,3.1,11.4l13,20.2a21.79,21.79,0,0,1,3.4,11.6Z"/><path d="M333.9,134.1v52.1h-6.7V134.1h-5.5v-3.6h18.1v3.6Z"/><path d="M347.8,130.5v49.8a2.58,2.58,0,0,0,3,1.9,2.61,2.61,0,0,0,1.9-1.9V130.5h7.5v45.9h-.1a13.58,13.58,0,0,1-1.2,4.9,9.28,9.28,0,0,1-3.6,4,8.93,8.93,0,0,1-9.6,0,9.63,9.63,0,0,1-3.5-4,11.86,11.86,0,0,1-1.3-5.3h0V130.4Z"/><path d="M363.6,186.5V130.6h9.8a9,9,0,0,1,4.8,1.4,10.1,10.1,0,0,1,3.5,3.9,11.77,11.77,0,0,1,1.3,5.2v34.8a11.77,11.77,0,0,1-1.3,5.2,9.44,9.44,0,0,1-3.5,3.9,9.64,9.64,0,0,1-4.6,1.5Zm6.9-4.7h3.1a2.38,2.38,0,0,0,2.4-1.9V136.1a2.55,2.55,0,0,0-2.6-1.9h-2.8Z"/><path d="M402.7,133.8h-9.8v30.7h9.8v3.4h-9.8v13.8h9.8v4.5H386.4V130.5h16.3Z"/><path d="M413.4,154.5v31.8h-6.5V130.6h6.5l5.9,29.7V130.6h6.5v55.7h-6.5Z"/><path d="M441.6,134.1v52.1h-6.7V134.1h-5.5v-3.6h18.1v3.6Z"/><path d="M289.8,171.6h-16v49.8h16v5.5h-16v22.5h16v7.4H263.3V166.2h26.5Z"/><path d="M302.2,225v31.8h-6.5V201h6.5l5.9,29.7V201h6.5v55.8h-6.5Z"/><path d="M330.9,238.3H328V235h10.4v12h-.1a13.58,13.58,0,0,1-1.2,4.9,9.88,9.88,0,0,1-3.6,4,8.93,8.93,0,0,1-9.6,0,9.63,9.63,0,0,1-3.5-4,11.86,11.86,0,0,1-1.3-5.3h0V211.2a12.54,12.54,0,0,1,1.3-5.3,10.39,10.39,0,0,1,3.5-4,8.93,8.93,0,0,1,9.6,0,10.65,10.65,0,0,1,3.6,4,11.8,11.8,0,0,1,1.2,4.9h.1v6.9h-7.5V206.1a2.53,2.53,0,0,0-3-1.9,2.47,2.47,0,0,0-1.9,1.9v44.8a2.58,2.58,0,0,0,3,1.9,2.61,2.61,0,0,0,1.9-1.9Z"/><path d="M343.7,256.8V201h6.7v55.8Z"/><path d="M361.6,225v31.8h-6.5V201h6.5l5.9,29.7V201H374v55.8h-6.5Z"/><path d="M393.8,204.4H384v30.7h9.8v3.4H384v13.8h9.8v4.5H377.5V201h16.3Z"/><path d="M413.2,204.4h-9.8v30.7h9.8v3.4h-9.8v13.8h9.8v4.5H396.9V201h16.3Z"/><path d="M427.6,256.8V239.9a1.6,1.6,0,0,0-1.4-1.5h-3.3v18.4h-6.5V201.1h10a16.47,16.47,0,0,1,3.2.6,8.63,8.63,0,0,1,3.5,1.6,3,3,0,0,1,1.3,2.1v27.7a3.17,3.17,0,0,1-1.3,2.1,7.45,7.45,0,0,1-2.5,1.3,8.18,8.18,0,0,1,2.5,2,5.65,5.65,0,0,1,1.3,3.3v15.1Zm-4.8-21.7h3.3a1.45,1.45,0,0,0,1.4-1.5V205.1a2.09,2.09,0,0,0-1.3-.7h-3.4Z"/><path d="M439,256.8V201h6.7v55.8Z"/><path d="M456.9,225v31.8h-6.5V201h6.5l5.9,29.7V201h6.5v55.8h-6.5Z"/><path d="M485.6,238.3h-2.9V235h10.4v12H493a13.58,13.58,0,0,1-1.2,4.9,9.88,9.88,0,0,1-3.6,4,8.93,8.93,0,0,1-9.6,0,9.63,9.63,0,0,1-3.5-4,11.86,11.86,0,0,1-1.3-5.3h0V211.2a12.54,12.54,0,0,1,1.3-5.3,10.39,10.39,0,0,1,3.5-4,8.93,8.93,0,0,1,9.6,0,10.65,10.65,0,0,1,3.6,4,11.8,11.8,0,0,1,1.2,4.9h.1v6.9h-7.5V206.1a2.53,2.53,0,0,0-3-1.9,2.47,2.47,0,0,0-1.9,1.9v44.8a2.58,2.58,0,0,0,3,1.9,2.61,2.61,0,0,0,1.9-1.9Z"/><path d="M264.1,300.2v11.2H264a20.1,20.1,0,0,1-2,8,15.85,15.85,0,0,1-5.8,6.5,14.21,14.21,0,0,1-15.5,0,15.85,15.85,0,0,1-5.8-6.5,19.73,19.73,0,0,1-2-8.6h0l-.1-57.6a18.52,18.52,0,0,1,2.1-8.6,15.85,15.85,0,0,1,5.8-6.5,15.23,15.23,0,0,1,7.8-2.4,13.56,13.56,0,0,1,7.8,2.4,15.85,15.85,0,0,1,5.8,6.5,20.05,20.05,0,0,1,2,7.9h.1v11.2h-12V244.8c-.4-1.9-1.8-2.9-4-3.2-2.2.3-3.5,1.3-3.9,3.2v72.7c.4,1.9,1.7,2.9,3.9,3.1,2.2-.2,3.6-1.3,4-3.1V300.1h11.9Z"/><path d="M270.7,281.8a12.54,12.54,0,0,1,1.3-5.3,10.39,10.39,0,0,1,3.5-4,10,10,0,0,1,4.8-1.5,8.27,8.27,0,0,1,4.8,1.5,10.65,10.65,0,0,1,3.6,4,11.8,11.8,0,0,1,1.2,4.9v36.2a13.58,13.58,0,0,1-1.2,4.9,9.88,9.88,0,0,1-3.6,4,9.1,9.1,0,0,1-13.1-4,11.86,11.86,0,0,1-1.3-5.3Zm6.9,39.6a2.46,2.46,0,0,0,2.4,1.9,2.58,2.58,0,0,0,2.5-1.9V276.6a2.67,2.67,0,0,0-2.5-2,2.38,2.38,0,0,0-2.4,2Z"/><path d="M302.2,271.6v49.8a2.58,2.58,0,0,0,3,1.9,2.61,2.61,0,0,0,1.9-1.9V271.6h7.5v45.9h-.1a13.58,13.58,0,0,1-1.2,4.9,9.88,9.88,0,0,1-3.6,4,8.93,8.93,0,0,1-9.6,0,9.63,9.63,0,0,1-3.5-4,11.86,11.86,0,0,1-1.3-5.3h0V271.5Z"/><path d="M325.3,295.6v31.8h-6.5V271.7h6.5l5.9,29.7V271.7h6.5v55.7h-6.5Z"/><path d="M361.4,310.6v6.9h-.1a13.58,13.58,0,0,1-1.2,4.9,9.28,9.28,0,0,1-3.6,4,8.93,8.93,0,0,1-9.6,0,9.63,9.63,0,0,1-3.5-4,11.86,11.86,0,0,1-1.3-5.3h0V281.7a12.54,12.54,0,0,1,1.3-5.3,10.39,10.39,0,0,1,3.5-4,10,10,0,0,1,4.8-1.5,8.27,8.27,0,0,1,4.8,1.5,10.65,10.65,0,0,1,3.6,4,11.8,11.8,0,0,1,1.2,4.9h.1v6.9H354V276.6a2.53,2.53,0,0,0-3-1.9,2.47,2.47,0,0,0-1.9,1.9v44.8a2.58,2.58,0,0,0,3,1.9,2.61,2.61,0,0,0,1.9-1.9V310.7h7.4Z"/><path d="M366,327.4V271.7h6.7v55.7Z"/><path d="M383.2,271.6v51.2H393v4.5H376.7V271.6Z"/><path d="M15.8,107H11.9v12.3h3.9v1.3H11.9v5.5h3.9v1.8H9.3V105.6h6.5Z"/><path d="M25.5,124.9a3,3,0,0,1-1.1,2.3,4.23,4.23,0,0,1-5.4,0,3,3,0,0,1-1.1-2.3v-4.3h2.7V125c0,.9.3,1.3,1,1.3s1-.4,1-1.3v-2.6a4.59,4.59,0,0,0-.8-2.8l-3.2-5a4.7,4.7,0,0,1-.8-2.9v-3a3,3,0,0,1,1.1-2.3,4.23,4.23,0,0,1,5.4,0,3,3,0,0,1,1.1,2.3v3.6H22.8v-4.1c0-.9-.3-1.3-1-1.3s-1,.4-1,1.3V111a4.59,4.59,0,0,0,.8,2.8l3.2,5a5.74,5.74,0,0,1,.8,2.9Z"/><path d="M32.6,107.1v20.8H29.9V107.1H27.7v-1.4h7.2v1.4Z"/><path d="M37.4,127.8a1.21,1.21,0,0,1-.5-.5,1.33,1.33,0,0,1,0-1.4,1.39,1.39,0,0,1,2.4,0,1.85,1.85,0,0,1,.2.7,1.45,1.45,0,0,1-.2.7,1.39,1.39,0,0,1-1.9.5Z"/><path d="M54.6,105.7V128H51.9V110.7l-1.7,3.2H47.6l4.3-8.2Z"/><path d="M61.7,120.8a4.87,4.87,0,0,1-1.2.1,12.25,12.25,0,0,1-1.9-.2,3.51,3.51,0,0,1-1.4-.6,1.37,1.37,0,0,1-.5-.8h0V107.4h0a1,1,0,0,1,.5-.8,3.51,3.51,0,0,1,1.4-.6,8.13,8.13,0,0,1,3.8,0,3.51,3.51,0,0,1,1.4.6,1,1,0,0,1,.5.8V125a3.47,3.47,0,0,1-1.2,2.3,4.09,4.09,0,0,1-5.3,0,2.9,2.9,0,0,1-1-2.3v-3.4h2.6v3.6c0,.9.4,1.3,1.1,1.3s1.1-.4,1.1-1.3Zm-.1-12.9c-.1-.2-.4-.3-1-.3s-.9.1-1,.3v11.2c.1.2.4.3,1,.3s.9-.1,1-.3Z"/><path d="M69.8,119.2a4.1,4.1,0,0,1,1.1-.1,11.08,11.08,0,0,1,1.9.2,3.51,3.51,0,0,1,1.4.6,1.37,1.37,0,0,1,.5.8v5.8h0a1.37,1.37,0,0,1-.5.8,3.51,3.51,0,0,1-1.4.6,6.15,6.15,0,0,1-1.9.2,12.25,12.25,0,0,1-1.9-.2,3.51,3.51,0,0,1-1.4-.6,1.05,1.05,0,0,1-.5-.9h0v-1.2h2.8v.8c.1.2.4.3,1,.3s.9-.1,1-.3v-4.9c-.1-.2-.4-.3-1-.3s-.9.1-1,.3v.5H67.1V107h0v-1.3h7.7V107h-5Z"/><path d="M77.1,122.1a7.22,7.22,0,0,1,.8-3.2l3.2-5a5.38,5.38,0,0,0,.8-2.8v-2.8c0-.9-.4-1.3-1.1-1.3s-1.1.4-1.1,1.3v4.1H77.1v-3.6a3,3,0,0,1,1.1-2.3,3.61,3.61,0,0,1,2.6-.9,3.92,3.92,0,0,1,2.6.9,2.9,2.9,0,0,1,1,2.3v3.1a6,6,0,0,1-.8,2.9l-3.2,5a4.9,4.9,0,0,0-.8,2.4v3.7h4.7V128H77Z"/><path d="M233.1,220.3l-19-10-19,10,3.6-21.1-15.4-15,21.3-3.1,9.5-19.2,9.5,19.2,21.2,3.1-15.4,15Zm-19-12.2,16.3,8.6-3.1-18.2,13.3-12.9L222.4,183l-8.2-16.5L206.1,183l-18.3,2.6L201,198.5l-3.1,18.2Z"/><polygon points="214.2 164.2 214.2 194.1 205.4 182.1 214.2 164.2"/><polygon points="185.6 184.9 214.2 194.1 199.9 198.8 185.6 184.9"/><polygon points="196.5 218.5 214.2 194.1 214.2 209.2 196.5 218.5"/><polygon points="231.8 218.5 214.2 194.1 228.5 198.8 231.8 218.5"/><polygon points="242.7 184.9 214.2 194.1 223 182.1 242.7 184.9"/><polygon points="213.1 207.2 208.4 303.7 217.3 307.6 213.1 207.2"/><polygon points="215.3 209.8 227 268.9 227.2 245.2 217.3 210.9 215.3 209.8"/><polygon points="219.6 212 232.5 237.9 236.7 233.6 224 214.4 219.6 212"/><polygon points="231.4 218.5 242.6 231.3 250.1 230.4 231.4 214 231.4 218.5"/><polygon points="230.1 208.3 257.8 227.1 257.8 218.6 230.1 205.1 230.1 208.3"/><polygon points="229 201.8 257.8 211.4 257.8 205.1 228.5 198.8 229 201.8"/><polygon points="230.6 196.7 257.8 197.7 257.8 192.5 234.7 192.8 230.6 196.7"/><polygon points="238.8 188.8 257.8 185 257.8 179.9 242.7 184.9 238.8 188.8"/><polygon points="235.2 183.8 257.8 170.9 257.8 164.1 230.7 183.2 235.2 183.8"/><polygon points="227.6 182.1 284.7 128 283.8 114.1 224.2 182.1 227.6 182.1"/><polygon points="221.9 179.9 282 87 265.8 87.3 221.1 178.3 221.9 179.9"/><polygon points="262.4 161.4 292.4 140.8 297.1 148.4 291.1 151.9 285.1 151.8 284.1 155.8 274 161.6 262.4 161.4"/><path d="M247.1,328.2c-18.1-.8-26.4-3.6-41.2-9.9-10.7-4.6-12.5-6.2-13.1-6.8l-.6-.5c-1.8-1.5-5.6-4.8-7.8-9a91.9,91.9,0,0,1-5.3-12.5,73.23,73.23,0,0,0-7.8-16.5c-3.2-5-7.7-11.5-11.7-17.2l-4-5.7a163.36,163.36,0,0,1-11.1-18.4c-2.1-3.8-4.4-8.1-7.9-13.8-2.5-4.3-3.9-5.1-8.6-8-2.4-1.5-5.9-1.4-9.5-1.3h-.6a8.92,8.92,0,0,0-6,2.4l-.6.6c-5.6,7.5-6.8,10.7-7.7,13.3a6.12,6.12,0,0,1-.5,1.2,12.3,12.3,0,0,1-7,7.3c-6,2.3-13.2-.4-16.9-2.3-12.1-6-28.5-15.7-30.8-30.9-1.3-8.3-6-13.1-12.6-19.8l-.8-.8a96.27,96.27,0,0,0-8.3-7.3c-2.4-2-4.9-4-7.3-6.3-1.4-1.3-2.6-2.5-3.8-3.6-1.9-1.8-3.7-3.5-6.1-5.7-.6-.6-1.4-1.2-2.2-1.9C4,152.2,0,148.9,0,143.1c0-4.2,1-7.1,2.9-9,2.6-2.6,6.3-2.6,9.5-2.5H88.2V0h86.6V3.4c.2,13.4.1,36.9,0,49.8v.9a28.22,28.22,0,0,0,.3,5.8,3.25,3.25,0,0,0,2.3,2.5l7.4,2.4c2.7,1,4.5,1.4,6.8,2.1l1,.3,3.5.9c2.1.6,4.3,1.1,6.8,1.9a163.86,163.86,0,0,0,38.8,5.7c7.5.1,14,.3,21-.6l2.3-.3c6.6-.9,13.4-1.8,21.7.8,8.1,2.6,8.8,2.8,11.8,4.9.9.6,2,1.4,3.9,2.6,7.4,4.8,16,17.9,16.4,21.4l-7,.7v.3c-.6-2-7.4-12.7-13.3-16.5-2-1.3-3.3-2.2-4.1-2.8-2.1-1.5-2.1-1.5-9.8-3.9-6.8-2.1-12.6-1.4-18.6-.5l-2.4.3c-7.5,1-14.5.8-22,.7a168.84,168.84,0,0,1-40.6-6c-2.5-.7-4.6-1.3-6.6-1.8l-3.6-1-1-.3c-2.3-.6-4.3-1.2-7.2-2.2l-7.1-2.3a10.27,10.27,0,0,1-7-7.9,34.81,34.81,0,0,1-.4-7.2v-.9c0-9.5.1-31.9,0-46.2H95.5V138.5h-83c-1.8,0-3.9,0-4.5.5-.2.2-.8,1-.8,4.1,0,2.4,1.8,3.9,4.6,6.2a27.46,27.46,0,0,1,2.6,2.2c2.4,2.3,4.2,4,6.1,5.8l3.7,3.6c2.2,2.1,4.5,4,6.9,6a92.59,92.59,0,0,1,8.8,7.8l.7.8c6.9,7,12.9,13.1,14.6,23.7,2,13.4,20.8,22.7,27,25.7,4.5,2.3,8.8,3,11.3,2a5.45,5.45,0,0,0,3-3.3c.1-.4.3-.7.4-1.1,1.1-3,2.5-6.9,8.9-15.4l.2-.3,1.1-1a16.34,16.34,0,0,1,10.5-4.2h.6c4.3-.1,9.1-.2,13.3,2.4,5.1,3.1,7.6,4.6,11,10.4s5.9,10.2,8,14a162.26,162.26,0,0,0,10.8,17.8c1.2,1.7,2.5,3.7,4,5.7,4,5.8,8.6,12.4,11.9,17.5a75,75,0,0,1,8.4,17.9,79.08,79.08,0,0,0,4.9,11.6c1.6,3,4.5,5.5,6.1,6.9l.8.6c.2.1,1.8,1.5,11.2,5.5,14.3,6.1,21.8,8.7,38.8,9.4Z"/><path class="cls-2" d="M18.8,144.4h82.8V12.1h61.6c.2,13.6.1,37.1.1,48.5,0,2.1,1.3,7.2,2.9,9.1,3.8,4.5,16.8,7,19.1,7.8l9.3,2.6c3.1,1.1,4.8,1.6,7.5,2.4,3.5,1,7,1.8,10.5,2.5,12.3,2.1,21.6,3.5,34.1,3.8,7.5.1,11.1,0,11.1,0l-6.1,12.8-30.9,64.1-1.3-2.2-6-10.5-12.1,24.5-27.1,3.9,19.6,19.1-4.6,27,14.1-7.5,1.9-1-4.5,79.4c-.1,1.2-2,1.1-2.8.2s-1.4-2.8-2-4c-3.3-6.1-4.8-13-8-19.2-5.8-11.1-4.8-7.6-12.7-19.9-4.3-6.8-11.2-16.9-15-24-4.8-8.9-6.2-12.8-9.6-17.8a56.8,56.8,0,0,0-12.5-13.4c-2.9-2.1-5.4-3.8-8.9-4.6,0,0-6.9-1.7-9-1.7-21,0-24.8,18.7-30.1,25.8-2.8,3.7-16.8-7-16.8-7l-5.8-3.7c-3.2-2.6-4-6-4.9-10a28.07,28.07,0,0,0-1.6-4.9A72.43,72.43,0,0,0,51.8,178c-7-8.6-33.7-30.5-37.2-33.4v-.1h0Z"/><path d="M199.8,300.2a3.49,3.49,0,0,1-2.4-1l-.1-.2-2.6-5.2a58.08,58.08,0,0,1-3.8-8.9c-1.3-3.5-2.6-7.1-3.6-9-3.4-6.5-4.4-7.9-6.3-10.5-1.3-1.8-3.1-4.2-6.3-9.3-1.1-1.7-2.3-3.6-3.6-5.5-4-6.2-8.6-13.1-11.4-18.5-1.7-3.3-3-5.8-4.1-8a92,92,0,0,0-5.4-9.7A56.22,56.22,0,0,0,138,201.3c-2.8-2-5.2-3.6-8.6-4.4a64.89,64.89,0,0,0-8.8-1.6h-.1c-15.7,0-21.5,11.1-25.7,19.2a38.47,38.47,0,0,1-3.6,6.2,3.09,3.09,0,0,1-2,1.1c-4.7.7-15-7-16.1-7.9L67.2,210c-3.4-2.8-4.3-6.3-5.3-10.4v-.1a44.19,44.19,0,0,0-1.5-4.8,74,74,0,0,0-9.2-15.9c-.9-1.1-1.9-2.1-2.9-3.1l-3.9-3.9-4.7-4.4c-1.7-1.5-3.4-3.1-5.2-4.6s-3.5-3.1-5.3-4.6-3.4-2.9-5.2-4.4l-4.7-3.9a65.35,65.35,0,0,0-5.1-4.1c-.4-.3-.7-.6-.5-1.2a1.44,1.44,0,0,1,1.1-.9h85.8V11.1h63.6v1c.2,15,.1,40.9.1,48.5,0,2,1.3,6.9,2.6,8.5,2.9,3.4,12,5.7,16.3,6.8,1.1.3,1.9.5,2.3.6l9.2,2.6c3.2,1.1,4.8,1.6,7.5,2.4l.6.2c3.2.9,6.5,1.7,9.9,2.3,11.3,2,21,3.5,34,3.7,7.4.1,11,0,11,0l1.6-.1-6.8,14.2-31.7,65.8-7.2-12.7-11.5,23.3-25.6,3.7,18.5,18-4.4,25.5,15.8-8.3-4.6,81.2a2,2,0,0,1-1.4,1.8C200.3,300.2,200.1,300.2,199.8,300.2Zm-.8-2.3a1.69,1.69,0,0,0,1,.3l4.4-77.6-16.3,8.6,4.9-28.4-20.6-20.1,28.6-4.1,12.8-25.7,7.2,12.6,30-62.4,5.4-11.3h-9.5C233.8,89.5,224,88,212.6,86a85.58,85.58,0,0,1-10-2.4l-.6-.2c-2.7-.7-4.4-1.3-7.6-2.4l-9.2-2.6c-.4-.1-1.2-.3-2.2-.6-4.9-1.3-14.1-3.6-17.4-7.5-1.8-2.2-3.1-7.7-3.1-9.8,0-7.4.1-32.4,0-47.5H102.6V145.3H17.3c6.8,5.6,28.9,24,35.3,31.9a69.41,69.41,0,0,1,9.5,16.5,27.57,27.57,0,0,1,1.6,5.1v.1c.9,3.9,1.7,7,4.5,9.3L74,212c3,2.3,11.4,8,14.7,7.6a.75.75,0,0,0,.7-.4,49.94,49.94,0,0,0,3.4-5.9c4.4-8.5,10.5-20.3,27.4-20.3h.1c2.1,0,8.5,1.5,9.3,1.7,3.7.9,6.3,2.6,9.3,4.7A54.71,54.71,0,0,1,151.6,213a80.13,80.13,0,0,1,5.5,9.9c1.1,2.2,2.4,4.8,4.1,8,2.9,5.3,7.4,12.3,11.4,18.4,1.3,2,2.5,3.9,3.6,5.6,3.2,5,4.9,7.3,6.3,9.2a69.43,69.43,0,0,1,6.5,10.7c1,2,2.4,5.7,3.7,9.3,1.2,3.2,2.9,7,3.4,8l.4,1Z"/><line class="cls-3" x1="248.5" y1="176.2" x2="297.1" y2="148.4"/></svg>